<?xml version="1.0" encoding="utf-8"?>
<!-- Generator: Adobe Illustrator 16.0.0, SVG Export Plug-In . SVG Version: 6.00 Build 0)  -->
<!DOCTYPE svg PUBLIC "-//W3C//DTD SVG 1.1//EN" "http://www.w3.org/Graphics/SVG/1.1/DTD/svg11.dtd">
<svg version="1.1" id="Layer_1" xmlns="http://www.w3.org/2000/svg" xmlns:xlink="http://www.w3.org/1999/xlink" x="0px" y="0px"
	 width="874.2px" height="361.9px" viewBox="0 0 874.2 361.9" enable-background="new 0 0 874.2 361.9" xml:space="preserve">
<g>
	<g>
		<g>
			<g>
				<path fill="#182F58" d="M514.6,283.3c-5.9-10.9-6.8-26.4-2.5-46.5c4.3-20.1,11.7-35.5,22.2-46.4c10.5-10.8,23.5-16.3,38.8-16.3
					c8.1,0,14.8,1.5,20.3,4.6l27.5-43c-10.7-3.9-23.4-5.8-38.1-5.8c-32.1,0-58.6,9.2-79.4,27.7l-33.7,158.9
					c5.8,8.1,13.6,14.4,23.3,18.9l28-43.8C518.5,289.3,516.4,286.5,514.6,283.3z"/>
			</g>
			<g>
				<path fill="#FF6800" d="M671.3,238.3c-6.4,30.2-20.7,55.7-42.4,77.2l-4.3,19.6h52.2l23-107.6c2.6-12.4,6.4-22.2,11.6-30.1
					c9.8-15.1,23.6-22.4,41.3-22.4c14.5,0,23.1,5.2,26.1,15.5c1.7,5.6,1.4,13-0.9,23.6l-25.7,121.1h53.6L834.3,201
					c5.3-25.1,2.5-42.7-8.4-53.6c-10.8-10.8-26.6-16.1-47.3-16.1c-16.5,0-31,4.1-43.5,12.2c-7,4.5-14.9,11.2-23.9,21.5l6.2-30H667
					l-4.9,24C674.5,181.4,677.6,208.5,671.3,238.3z"/>
			</g>
			<g>
				<path fill="#FF6800" d="M657.7,171c-0.8-1.8-1.6-3.5-2.5-5.3c-0.7-1.4-1.5-2.7-2.2-4.1c-0.1-0.2-0.3-0.4-0.4-0.6
					c-4.3-7.2-9.9-13.1-16.8-17.8l-30.6,47.7c5.7,10.8,6.4,26.1,2.2,45.9c-4.3,20.1-11.7,35.6-22.2,46.5
					c-10.5,10.9-23.5,16.4-38.8,16.4c-3.7,0-7.1-0.3-10.3-1l-26.9,42c8.4,1.9,17.7,2.8,28,2.8c34.1,0,61.8-10.3,83.1-30.8
					c0.2-0.2,0.3-0.3,0.5-0.5c1.4-1.4,2.7-2.7,4.1-4.1c1.6-1.7,3.2-3.5,4.7-5.2c16.4-18.9,27.3-40.9,32.6-66.1
					C667.6,212.1,666,190.1,657.7,171z"/>
			</g>
		</g>
		<g>
			<polygon fill="#182F58" points="272.6,72.1 267.8,72.1 263.1,72.1 225.9,72.1 128.3,266.8 114.8,72.1 37.3,72.1 76,335.1 
				148.9,335.1 241.4,175.4 248.9,162.6 249,162.4 255.8,148.9 256.7,147.4 300,72.1 			"/>
		</g>
		<g>
			<path fill="#182F58" d="M258.7,320l10.1-47.5l0.7-3.5l0.7-3.5l5.1-23.8c0,0,0,0,0,0l0.9-4.1l0.9-4.1l10.9-51.3h-40.9l-19.5,33.7
				l-25.4,119.3h53.1l1.6-6.8c0,0,0,0.3,0,0.3l0.9-4.2l0,0.1L258.7,320"/>
		</g>
		<g>
			<path fill="#182F58" d="M292.6,160.4l1.3-6.3l1.2-5.6c0,0,0-0.8,0-0.9l2.5-12.6h-24.1l-2,4.3l-18.6,32.7h37.2L292.6,160.4z"/>
		</g>
		<g>
			<path fill="#182F58" d="M445.7,135.1l-2.4,12.2c5.4,6.6,8.9,14.8,10.5,24.8h37.5l1.1-5.4l1.4-6.6l1.3-6c0,0,0-0.8,0-0.9l3.7-18.2
				H445.7z"/>
		</g>
		<g>
			<path fill="#182F58" d="M454,197.4l-0.7,5.7H447h-15.8l-4.7,23c2.7,2.2,5.1,4.8,7.2,7.3l0,0.2l0,0.1c9.6,11.7,12.6,26.4,9,43.6
				c-4.6,21.5-16.5,39.3-35.3,52.8c-1.1,0.8-2.2,0.8-3.3,1.6l-0.9,3.3h53.1l3.9-17.7c0,0,0,0.3,0,0.3l1.1-4.9l1.1-5.1l26.6-125.6
				h-34.4C454.9,187.1,454.7,191.9,454,197.4z"/>
		</g>
		<g>
			<g>
				<polygon fill="#182F58" points="414.9,229.4 414.9,229.4 414.9,229.4 				"/>
			</g>
			<g>
				<path fill="#182F58" d="M423.5,198.1h3.6h3.6H445c1.9-16,0-30.9-5.8-40.8l-0.1-0.1c-0.8-1.4-1.7-3.1-2.7-4.3l0,0
					c-0.9-1.2-1.8-2.5-2.9-3.6l0,0.1c-1.4-1.5-3-2.7-4.7-4c-13.6-10-32.9-14.9-57.9-14.9c-26.3,0-48.2,6.7-65.5,20
					c-0.7,0.5-1.4,1.1-2,1.6L285.1,239c8.2,6.4,20.9,11.8,38.2,16.3c29.9,7.5,47,12.7,51.2,15.8c4.3,3.1,5.8,7.5,4.6,13.4
					c-1.3,6.1-5.4,10.7-12.1,13.8c-6.7,3.1-15.2,4.6-25.5,4.6c-17.5,0-28.7-4.2-33.6-11.2c-2.9-3.9-4-9.6-3.1-20.6H278l-11.4,54.6
					C279.2,337,300,343,328.9,343c27.4,0,49.5-4.8,66.2-14.7c0.1-0.1,0.2-0.1,0.4-0.2c0,0,0,0,0,0l0.2-0.1c1.4-0.8,2.6-1.7,3.9-2.6
					c0.4-0.3,1-0.6,1.5-0.9c1-0.7,2.1-1.5,3.1-2.2c15.7-12.2,25.5-27.7,29.6-46.4c3.2-15.1,0.7-27.6-7.5-37.7
					c-1.1-1.3-2.2-2.5-3.4-3.6c-1-0.9-1.9-1.8-3-2.6c-0.9-0.7-1.1-1.6-3.1-2.4v0c0,0,0.1-0.1,0.1-0.1c-0.1,0,0-0.1,0-0.1
					c-5.9-4-13.1-7.4-21.5-10.2c-3.4-1.2-7.2-2.2-11.1-3.2c-29.8-6.9-47-11.7-51.5-14.5c-4.7-2.7-6.3-7-5-13c1-4.8,4.2-8.9,9.8-12.5
					c5.6-3.6,14-5.3,25.4-5.3c13.8,0,22.9,3.9,27.2,11.1c2.2,3.9,3,10.4,2.4,16.4H423.5z M395.6,328.1
					C395.6,328.1,395.5,328.1,395.6,328.1C395.5,328.1,395.6,328.1,395.6,328.1L395.6,328.1z"/>
			</g>
		</g>
	</g>
	<g>
		<g>
			<path fill="#182F58" d="M141.7,35.1c0,0.3,0,0.6,0,0.8s0,0.4,0,0.6c0,0.8,0.1,1.5,0.4,2.1c0.3,0.5,0.7,1,1.3,1.3
				c0.6,0.3,1.3,0.5,2.2,0.6c0.9,0.1,2,0.2,3.3,0.2h6.4c1.5,0,2.7-0.1,3.8-0.2c1-0.1,1.8-0.3,2.5-0.7c0.6-0.3,1.1-0.8,1.4-1.4
				c0.3-0.6,0.4-1.4,0.4-2.5c0-0.9-0.1-1.6-0.3-2.1c-0.2-0.5-0.5-0.9-1-1.2c-0.4-0.3-1-0.5-1.7-0.6c-0.7-0.1-1.5-0.2-2.5-0.2h-10.3
				c-1.6,0-3-0.1-4.1-0.3c-1.1-0.2-2-0.6-2.7-1.1c-0.7-0.5-1.2-1.2-1.5-2.1c-0.3-0.9-0.5-1.9-0.5-3.2c0-1.4,0.2-2.5,0.6-3.4
				c0.4-0.9,1-1.6,1.9-2.1c0.9-0.5,1.9-0.9,3.3-1.1c1.3-0.2,2.9-0.3,4.8-0.3h5.6c2.3,0,4.2,0.1,5.7,0.2c1.5,0.2,2.7,0.6,3.6,1.3
				c0.6,0.5,1,1.2,1.3,2c0.3,0.8,0.4,1.8,0.4,2.9v0.7h-2.9v-0.4c0-0.9-0.1-1.6-0.3-2.1c-0.2-0.5-0.5-1-1-1.2s-1.1-0.5-1.9-0.6
				c-0.8-0.1-1.7-0.2-2.9-0.2h-8.4c-1.2,0-2.2,0.1-3,0.2c-0.8,0.1-1.5,0.3-2,0.6c-0.5,0.3-0.9,0.7-1.1,1.2c-0.2,0.5-0.3,1.2-0.3,2
				c0,0.9,0.1,1.6,0.4,2.2c0.2,0.6,0.6,1,1.2,1.3c0.5,0.3,1.2,0.5,2.1,0.6c0.8,0.1,1.9,0.1,3,0.1h8.8c1.6,0,2.9,0.1,4,0.2
				c1.1,0.1,2,0.4,2.7,0.8c0.9,0.6,1.5,1.3,1.9,2.3c0.3,1,0.5,2.2,0.5,3.7c0,1.4-0.2,2.6-0.5,3.5s-0.9,1.7-1.8,2.2
				c-0.8,0.6-1.9,1-3.1,1.2c-1.3,0.2-2.8,0.4-4.7,0.4h-8.3c-1.6,0-3-0.1-4.1-0.3c-1.2-0.2-2.1-0.6-2.8-1.1c-0.7-0.5-1.3-1.2-1.6-2
				c-0.3-0.8-0.5-1.8-0.5-3c0-0.3,0-0.6,0-0.9c0-0.3,0-0.6,0-1H141.7z"/>
		</g>
		<g>
			<path fill="#182F58" d="M249.7,32.9l-13.9-14.3h4.3l11.2,11.5l11.2-11.5h4.3l-13.9,14.3v10.2h-3.2V32.9z"/>
		</g>
		<g>
			<path fill="#182F58" d="M337.2,43.1V18.6h4.8l22.1,21.7V18.6h3v24.5h-4.4l-22.5-22v22H337.2z"/>
		</g>
		<g>
			<path fill="#182F58" d="M440.6,18.6h24.1v2.7h-21.2V29h20.3v2.7h-20.3v8.6h21.2v2.7h-24.1V18.6z"/>
		</g>
		<g>
			<path fill="#182F58" d="M536.6,43.1V18.6H554c1.7,0,3.2,0.1,4.4,0.2c1.2,0.1,2.2,0.4,3,0.8c0.8,0.4,1.3,1,1.7,1.8s0.5,1.8,0.5,3
				v2.9c0,0.7-0.1,1.3-0.2,1.9c-0.1,0.5-0.4,1-0.7,1.4c-0.3,0.4-0.8,0.7-1.3,1c-0.6,0.3-1.3,0.5-2.1,0.7c2.7,0.3,4,1.9,4,4.8v6.1h-3
				v-5.5c0-1-0.1-1.7-0.3-2.3c-0.2-0.5-0.6-1-1-1.2c-0.5-0.3-1.1-0.5-1.8-0.5c-0.8-0.1-1.7-0.1-2.7-0.1h-14.9v9.6H536.6z
				 M539.6,21.3v9.4H555c1.1,0,2-0.1,2.7-0.2c0.7-0.1,1.3-0.3,1.7-0.6c0.4-0.3,0.7-0.7,0.9-1.3c0.2-0.5,0.2-1.2,0.2-2.1v-1.2
				c0-0.8-0.1-1.5-0.2-2.1c-0.2-0.5-0.4-1-0.9-1.3c-0.4-0.3-1-0.5-1.7-0.6c-0.7-0.1-1.6-0.2-2.7-0.2H539.6z"/>
		</g>
		<g>
			<path fill="#182F58" d="M656.9,40.6c1.2,0,2.2-0.1,3-0.3c0.8-0.2,1.4-0.5,1.8-0.9c0.4-0.4,0.7-1,0.8-1.8c0.1-0.8,0.2-1.7,0.2-2.9
				v-1.2h-12.6v-2.7h15.6v4c0,0.8,0,1.6,0,2.2c0,0.7-0.1,1.3-0.2,1.9c-0.1,0.6-0.3,1.1-0.6,1.6s-0.6,0.9-1.1,1.3
				c-0.8,0.7-1.9,1.1-3.3,1.3c-1.4,0.2-3.1,0.2-5.2,0.2h-8.8c-1,0-1.9,0-2.7,0s-1.6-0.1-2.3-0.2c-0.7-0.1-1.3-0.3-1.9-0.5
				c-0.6-0.2-1.1-0.5-1.5-0.9c-0.9-0.7-1.5-1.7-1.8-2.9c-0.3-1.2-0.5-2.6-0.5-4.4v-6.7c0-1.9,0.2-3.5,0.5-4.7c0.3-1.2,0.9-2.2,1.8-3
				c0.9-0.7,2-1.2,3.3-1.4c1.3-0.2,3-0.3,5-0.3h8.8c1.8,0,3.4,0.1,4.7,0.3c1.3,0.2,2.4,0.5,3.2,1.1c0.8,0.5,1.4,1.2,1.8,2.1
				c0.4,0.9,0.6,2,0.6,3.5c0,0.2,0,0.4,0,0.6c0,0.2,0,0.4,0,0.7h-2.8v-0.4c0-1-0.1-1.8-0.3-2.4c-0.2-0.7-0.5-1.2-1-1.6
				c-0.5-0.4-1.1-0.7-1.8-0.9c-0.7-0.2-1.6-0.3-2.6-0.3h-11.7c-1.3,0-2.4,0.1-3.2,0.4c-0.8,0.2-1.5,0.7-2,1.4
				c-0.4,0.6-0.7,1.3-0.8,2c-0.1,0.8-0.1,1.7-0.1,2.7v6.5c0,1,0,1.9,0.1,2.7c0.1,0.8,0.3,1.5,0.8,2c0.5,0.7,1.2,1.2,2,1.4
				c0.8,0.2,1.9,0.4,3.2,0.4H656.9z"/>
		</g>
		<g>
			<path fill="#182F58" d="M749.5,32.9l-13.9-14.3h4.3l11.2,11.5l11.2-11.5h4.3l-13.9,14.3v10.2h-3.2V32.9z"/>
		</g>
	</g>
</g>
</svg>
